<?xml version="1.0" encoding="UTF-8"?>
<svg id="Capa_1" data-name="Capa 1" xmlns="http://www.w3.org/2000/svg" viewBox="0 0 500 500">
  <defs>
    <style>
      .cls-1 {
        stroke-width: 0px;
      }
    </style>
  </defs>
  <path class="cls-1" d="m111.46,301.22c-6.99,1.21-13.36,2.31-20.12,3.48-.07-1.36-.15-2.35-.15-3.35-.02-10.73-.01-21.45-.03-32.18,0-3.77-.38-4.11-4.16-3.31-8.16,1.73-16.31,3.54-24.47,5.31-.54.12-1.09.15-2.28.31,1.26-4.78,2.71-9.16,3.54-13.65,1.01-5.46,4.23-7.67,9.48-8.33,4.97-.63,9.84-2.04,14.79-2.91,2.3-.41,3.15-1.41,3.14-3.78-.05-17.28.03-34.55.04-51.83,0-.77-.25-1.54-.55-3.22-1.91,2.18-3.38,3.6-4.55,5.24-11.76,16.53-21.45,34.2-28.3,53.3-5.44,15.17-9.81,30.69-12.13,46.7-.87,5.99-1.64,12-2.43,18.01-.29,2.16-1.04,3.61-3.57,4.01-4.68.73-9.3,1.78-13.94,2.78-2.4.51-3.44-.3-3.17-2.77.7-6.3.94-12.69,2.16-18.88,2.34-11.88,4.41-23.93,8.11-35.41,4.09-12.68,9.39-25.03,15.08-37.09,4.55-9.65,10.01-18.95,15.91-27.84,5.69-8.58,12.39-16.51,18.85-24.55,1.03-1.28,3.1-2.03,4.82-2.38,6.78-1.37,13.62-2.49,20.44-3.67,3.24-.56,3.36-.45,3.37,2.91.06,21.26.08,42.53.16,63.79.09,21.54.22,43.08.36,64.62,0,1.08.19,2.15.36,3.89,9.28-8.17,19.15-9.4,30.44-5.03-2.36,3.76-4.41,7.24-6.74,10.53-.4.57-1.98.5-2.98.39-1.95-.21-3.96-1.16-5.79-.86-1.49.24-3.14,1.6-4.01,2.93-1.1,1.67-.31,3.53,1.3,4.75,3.1,2.34,6.23,4.64,9.38,6.91,5.76,4.14,11.38,8.48,14.55,15.04,4.56,9.45,3.94,18.81-1.57,27.66-4.98,7.98-12.15,12.74-21.54,14.75-9.32,1.99-17.82.05-26.75-3.45,1.82-3.02,3.46-5.95,5.28-8.76,3.53-5.45,3.57-5.43,9.44-2.71,7.79,3.62,17.93,2.03,22.36-6.18,2.38-4.4,1.94-11.93-1.08-15.94-3.7-4.92-9.15-7.56-13.84-11.2-3.05-2.37-6.09-4.84-8.69-7.67-4.01-4.36-3.85-9.58-2.11-14.91.49-1.51.89-3.05,1.58-5.44Z"/>
  <path class="cls-1" d="m342.57,253.22c-3.52-.61-7.05-1.16-10.56-1.85-7.17-1.4-13.96-3.81-20.71-6.69-7.41-3.16-13.77-7.52-19.29-13.17-2.82-2.9-5.1-6.32-7.63-9.5-1.36-1.71-1.09-3.36-.17-5.25,4.73-9.72,9.58-19.39,13.88-29.29,1.58-3.63,2.21-7.85,2.42-11.85.24-4.52-2.22-6.7-6.77-6.41-4.13.26-8.25,1.07-12.32,1.89-.76.16-1.49,1.46-1.84,2.39-.31.83-.09,1.87-.09,2.82-.01,25.06-.02,50.12-.03,75.18,0,4.06-.08,4.13-4.17,4.91-3.63.69-7.27,1.37-10.89,2.1-3.04.62-3.59.26-3.59-2.83-.01-19.65,0-39.3,0-58.94,0-11.39,0-22.78-.02-34.17,0-4.58-.01-4.5,4.44-5.33,8.85-1.66,17.64-3.79,26.55-5.01,5.84-.8,11.95-1.02,17.77-.23,6.47.87,9.87,6.03,11.07,13.09,1.72,10.14-1.69,19.11-5.88,27.91-3.09,6.5-6.33,12.94-9.72,19.29-1.19,2.24-1.05,3.79.76,5.48,5.75,5.37,12.16,9.64,19.57,12.37,7.1,2.62,14.39,4.1,21.99,3.65,2.3-.13,2.95.81,2.93,2.98-.1,8.45-.15,16.9-.03,25.34.03,2.45-.76,3.69-3.2,4-2.07.26-4.09.93-6.16,1.07-2.84.19-3.95,1.46-3.93,4.33.08,13.48.04,26.96.03,40.43,0,6.64-.12,13.29.03,19.93.06,2.77-.66,4.17-3.65,4.45-2.79.26-5.52,1.23-8.31,1.64-.59.09-1.34-.87-2.01-1.37-.05-.03-.01-.18,0-.28.04-10.24.11-20.49.13-30.73,0-4.84-.09-9.67-.09-14.51,0-5.59.06-11.19.14-16.78.04-2.64-.99-3.61-3.68-2.87-2.28.63-4.65.9-6.97,1.37-2.15.44-3.27-.21-3.18-2.59.09-2.37.1-4.75-.01-7.12-.1-2,.98-2.6,2.69-2.91,9.69-1.76,19.37-3.56,29.04-5.39.57-.11,1.07-.59,1.6-.9l-.12-.67Z"/>
  <path class="cls-1" d="m418.03,170.7c-.12,13.74-4.91,25.76-13.97,35.97-7.35,8.28-16.01,14.74-27.09,17.41-9.12,2.19-18.1,2.38-26.67-1.86-10.19-5.04-16.8-13.07-18.96-24.39-3.36-17.61,1.88-32.94,13.44-46.03,9.96-11.28,22.45-18.24,37.99-18.32,14.37-.08,27.95,8.26,32.45,22.24,1.55,4.8,2.36,9.84,3.5,14.77-.23.07-.46.14-.69.22Zm-40.94-19.75c-5.38.36-11.87,2.75-17.38,7.72-8.78,7.92-13.83,17.32-12.63,29.55,1.23,12.54,12.81,21.65,25.23,19.6,15.48-2.55,27.69-15.33,29.06-31.13,1.25-14.43-8.18-25.78-24.28-25.74Z"/>
  <path class="cls-1" d="m128.57,234.19c0-15.56.06-31.13-.05-46.69-.02-2.69.8-3.88,3.52-4.35,11.01-1.89,21.96-4.2,33.01-5.86,3.94-.59,8.2-.33,12.11.52,7.83,1.7,11.98,7.75,12.13,16.69.15,9.09-2.94,17.2-7.26,25.06-6.44,11.7-14.76,21.99-23.34,32.1-2.97,3.51-6.33,6.69-9.25,10.24-1.1,1.34-1.93,3.24-2.07,4.95-.32,3.87-.22,7.78-.13,11.66.05,2.15-.92,3.03-2.93,3.38-4.2.73-8.4,1.5-12.54,2.49-2.54.61-3.19-.3-3.18-2.65.05-11.86.01-23.72.01-35.59,0-3.99,0-7.97,0-11.96,0,0-.01,0-.02,0Zm18.81,2.41c.3.14.61.28.91.41.94-1.11,1.95-2.17,2.82-3.33,3.36-4.46,6.72-8.92,10.01-13.43,3.74-5.12,7.2-10.36,8.29-16.84,1.1-6.54-1.98-10.26-8.52-9.55-3.75.41-7.45,1.33-11.18,1.97-2.26.39-3.17,1.6-3.13,3.92.15,8.15.12,16.3.26,24.44.07,4.13.35,8.26.53,12.39Z"/>
  <path class="cls-1" d="m200.12,270.75c-.06-1.32-.15-2.43-.15-3.55,0-6.92,0-13.84.03-20.76.08-12.89.26-25.79.27-38.68,0-11.66-.11-23.32-.31-34.98-.04-2.28.88-3.3,2.93-3.69,13.58-2.56,27.16-5.15,40.75-7.66,3.38-.62,3.39-.51,3.4,3.06,0,2.18-.11,4.38.07,6.54.2,2.48-.87,3.64-3.23,4.06-6.8,1.22-13.58,2.62-20.39,3.79-4.62.79-4.9.96-4.91,5.51-.02,6.07-.07,12.15-.04,18.22.02,4.69.4,4.94,4.91,4.02,4.92-1,9.86-1.96,14.8-2.88,3.23-.6,3.7-.18,3.76,3.02.04,2.18-.04,4.37.16,6.54.18,1.91-.51,2.8-2.36,3.14-6.04,1.12-12.06,2.39-18.11,3.46-2.29.4-3.21,1.44-3.18,3.8.1,7.87.02,15.75.07,23.63.02,2.93.59,3.35,3.41,2.78,7.89-1.59,15.79-3.19,23.68-4.79,3.07-.62,3.69-.13,3.69,3.07,0,3.51-.06,7.02-.03,10.53.01,1.54-.48,2.46-2.14,2.78-15.25,2.98-30.49,6.02-45.74,9.03-.27.05-.55,0-1.32,0Z"/>
  <path class="cls-1" d="m237.18,321.13c0,10.16-.03,20.32.02,30.47.01,2.23-.22,3.74-3.08,3.99-2.99.26-5.92,1.22-8.86,1.92-1.66.4-2.52,0-2.5-1.9.12-9.11.25-18.22.25-27.33-.01-10.91-.18-21.82-.25-32.74-.03-5.13.02-10.25,0-15.38,0-1.57.24-2.76,2.12-3.09,9.06-1.58,18.08-3.38,27.16-4.77,2.84-.43,5.89-.13,8.75.38,5.59.99,8.48,5.37,9.03,11.83.69,8.16-2.2,15.28-5.7,22.29-2.24,4.49-4.56,8.95-6.94,13.37-1.19,2.21-1.12,3.95.84,5.78,8.91,8.24,19.36,12.7,31.49,13.11,4.11.14,4.11.05,4.11,4.07,0,2.37-.08,4.75.06,7.12.13,2.26-.8,2.99-3,2.95-9.83-.17-19.11-2.67-28-6.68-8.57-3.86-15.55-9.68-20.91-17.44-1.09-1.58-1.16-2.82-.29-4.64,4.2-8.8,8.33-17.65,12.14-26.63.95-2.24.86-5.02.81-7.54-.05-2.53-1.52-4.52-4.22-4.46-3.84.09-7.7.49-11.49,1.13-.69.12-1.51,2.04-1.52,3.13-.12,10.35-.07,20.69-.07,31.04h.02Z"/>
  <path class="cls-1" d="m447.43,121.72c0,8.75,0,16.7,0,24.65,0,18.69,0,37.38,0,56.06,0,3.42.22,3.65,3.53,3.01,7.51-1.46,15.02-2.96,22.52-4.48,4.14-.84,4.68-.46,4.74,3.72.04,2.94.03,5.88-.01,8.82-.03,2.12-.96,3.46-3.23,3.89-12.09,2.32-24.16,4.71-36.24,7.08-2.14.42-4.29.76-6.4,1.32-2.03.54-2.84-.43-3.14-2.18-.17-1.02-.26-2.07-.27-3.11-.04-30.64-.06-61.28-.14-91.92,0-2.03.59-3.22,2.66-3.62,5.09-.99,10.16-2.06,15.96-3.24Z"/>
  <path class="cls-1" d="m163.51,369.34c-.08-1.23-.18-2.06-.18-2.9-.03-24.67-.04-49.35-.11-74.02,0-2.04.34-3.45,2.69-3.85,9.24-1.59,18.44-3.4,27.7-4.85,2.56-.4,5.34-.11,7.91.4,4.18.83,7.09,3.36,8.5,7.54,2.57,7.57.65,14.58-2.55,21.43-4.82,10.31-11.69,19.24-18.98,27.86-2.8,3.31-6.05,6.23-8.83,9.56-1.12,1.34-1.9,3.25-2.11,4.98-.36,3-.03,6.07-.28,9.09-.07.85-.99,2.16-1.74,2.34-3.85.94-7.76,1.59-12.03,2.41Zm14.21-37.49c.49.3.98.6,1.47.89.41-.86.69-1.8,1.24-2.55,3.23-4.45,6.65-8.76,9.75-13.29,2.92-4.28,6.01-8.52,5.94-14.17-.05-4.28-1.84-6.54-6.11-6.28-3.29.2-6.54.96-9.81,1.43-2.6.37-3.3,1.9-3.25,4.38.15,7.49.05,14.98.16,22.46.03,2.38.4,4.76.61,7.14Z"/>
  <path class="cls-1" d="m401.18,243.67c-3.3,9.8-6.43,19.14-9.58,28.48-3.39,10.02-6.8,20.03-10.2,30.05-1.13,3.32-2.26,6.64-3.31,9.99-.21.66-.06,1.42-.07,2.14.69,0,1.41.12,2.08,0,6.15-1.15,12.29-2.35,18.45-3.51.8-.15,1.65-.09,3.02-.16,0,3.82.09,7.4-.08,10.97-.03.63-1.04,1.62-1.74,1.76-13.29,2.67-26.6,5.23-39.91,7.8-.17.03-.36-.07-.96-.2,1.24-3.92,2.44-7.83,3.72-11.7,6.27-18.88,12.57-37.75,18.84-56.64.93-2.8.51-3.26-2.36-2.73-5.31.98-10.64,1.92-15.93,3.01-1.93.4-2.64-.13-2.56-2.08.1-2.47.06-4.94.06-7.4,0-1.83.92-2.7,2.7-3.04,11.64-2.22,23.27-4.5,34.91-6.72.8-.15,1.65-.02,2.93-.02Z"/>
  <path class="cls-1" d="m299.44,306.91c0,6.35-.06,12.71.03,19.06.03,2.17-.58,3.29-2.94,3.54-2.62.27-5.24.86-7.78,1.58-2.57.73-3.34,0-3.31-2.64.1-11-.08-22,.07-33,.14-10.54-1.35-8.29,8.65-10.33,5.3-1.09,5.3-1.03,5.29,4.44-.01,5.78,0,11.57,0,17.35Z"/>
  <path class="cls-1" d="m299.94,272.09c.01,4.07-3.41,7.42-7.65,7.5-3.88.07-7.5-3.64-7.5-7.7,0-4.09,3.46-7.39,7.73-7.37,4.37.03,7.41,3.13,7.43,7.57Z"/>
</svg>