<?xml version="1.0" encoding="UTF-8"?>
<svg id="Capa_1" data-name="Capa 1" xmlns="http://www.w3.org/2000/svg" viewBox="0 0 500 500">
  <defs>
    <style>
      .cls-1 {
        stroke-width: 0px;
      }
    </style>
  </defs>
  <path class="cls-1" d="m21.03,134.92v228.64c1.06-.7,1.78-1.15,2.48-1.63,16.62-11.15,33.46-21.93,51.31-31.06,30.44-15.55,62.34-27,95.67-34.49,18.06-4.07,36.25-7.43,54.84-7.63,13.37-.15,26.74-.05,40.11-.09,13.46-.04,26.82,1.02,40.13,3.2,42.46,6.97,83.01,19.72,121.04,39.99,16.61,8.85,32.93,18.24,47.82,29.88,1.34,1.05,2.73,2.03,4.53,3.37v-230.16H21.03Zm63.22,78.15c-.09-7.04-.17-14.07-.31-21.11-.02-1.17-.18-2.38-.5-3.5-.85-2.97-4.32-5.72-6.74-5.46-2.34.25-5.03,3.2-5.34,6.29-.39,3.93-.69,7.88-.73,11.83-.17,16.69-.29,33.37-.28,50.07,0,6.08.44,12.16.73,18.23.06,1.18.27,2.36.52,3.52.88,4,2.22,5.03,6.25,4.87,3.27-.13,4.93-1.36,5.47-4.79.54-3.42.79-6.91.86-10.38.13-6.64.04-13.28.04-19.89h20.67c.16.82.32,1.26.32,1.71-.08,9.96-.03,19.93-.32,29.89-.23,7.82-4.6,13.53-10.62,17.92-6.01,4.37-12.94,6.18-20.38,5.78-8.56-.46-14.65-5.16-19.79-11.61-2.64-3.31-3.62-6.78-3.61-11.07.03-25.23-.26-50.46-.38-75.69-.02-4.66.12-9.33.45-13.98.83-11.63,8.08-19.9,19.55-22.19,5.96-1.19,12.04-1.41,17.79.8,9.48,3.64,15.96,10.3,16.92,20.67.94,10.12.89,20.33,1.28,30.74h-21.86c0-.96.01-1.8,0-2.64Zm88.43,51.79c-5.64.95-11.21,2.04-16.82,2.78-3.33.44-4.44-.85-4.51-4.73-.09-5.06-.03-10.13-.03-15.19v-2.67h-12.58c-.04.83-.11,1.66-.11,2.49,0,7.28.03,14.56-.06,21.83,0,.8-.62,2.12-1.22,2.28-6.39,1.79-12.83,3.4-19.26,5.05-.22.06-.47-.01-.96-.04v-2.56c0-23.58-.03-47.15.04-70.72.02-5.77.45-11.53.59-17.29.26-10.2,8.78-19.8,19.98-22.54,12.82-3.14,25.82,2.28,31.95,13.3,2.45,4.41,2.81,9.24,2.84,14.03.19,24.12.19,48.25.26,72.37,0,.47-.07.93-.12,1.61Zm87.09-7.4h-21.5v-37.43c-.42-.1-.83-.2-1.25-.3-4.78,9.28-9.56,18.57-14.51,28.2-4.97-9.75-9.82-19.29-14.67-28.83-.19,0-.38.01-.56.02,0,.78,0,1.57,0,2.36-.09,10.28.02,20.56-.32,30.83-.29,8.66-.13,8.38-8.3,9.32-4.23.49-8.47.86-13.02,1.31v-97.76c2.45,0,4.87-.05,7.28,0,4.58.12,9.16.4,13.74.42,1.7,0,2.46.53,3.05,2.15,3.85,10.71,7.81,21.38,11.74,32.06.28.77.63,1.53,1.22,2.93,1.87-4.74,3.52-8.81,5.08-12.92,2.74-7.24,5.47-14.49,8.1-21.77.59-1.63,1.34-2.35,3.19-2.3,6.01.13,12.02.04,18.03.05.77,0,1.55.07,2.7.12v91.52Zm66.54-39.39c-.04,7.88-6.61,13.78-12.66,14.52-5.39.66-10.86.65-16.29.92-.86.04-1.73,0-2.88,0v24.9c-.54.18-.82.36-1.11.36-6.17-.04-12.33-.12-18.5-.15-1.48,0-2.06-.52-2.06-2.1.04-29.74.03-59.48.04-89.22,0-.38.07-.77.15-1.5,2.5,0,4.78-.02,7.06,0,9.88.1,19.76.24,29.65.32,7.35.06,12.13,4.11,15.32,10.2,1.04,2,1.37,4.57,1.39,6.89.08,11.62-.05,23.23-.1,34.85Zm56.43,58.82c-15.3-3.77-30.16-7.44-45.2-11.16v-100.22c10.31,0,20.35-.01,30.39,0,4.19,0,8.38.04,12.57.21.67.03,1.87.82,1.88,1.27.13,5.84.09,11.69.09,17.79-7.87.27-15.58.53-23.41.79v23.84h21.27v20.3h-21.42v9.67c0,3.48.1,6.96-.04,10.44-.07,1.74.56,2.28,2.19,2.57,6.53,1.16,13.04,2.48,19.55,3.74,1.13.22,2.16.47,2.15,2-.03,6.3,0,12.6,0,18.76Zm66.65,28.85c-1.22-.52-2.21-.89-3.15-1.36-5.31-2.63-10.6-5.33-15.94-7.89-1.33-.65-1.79-1.43-1.78-2.9.06-9.33.1-18.67-.03-28-.07-4.58-.31-9.17-.88-13.71-.86-6.9-4.61-10.56-12.02-11.95-1.86,16.34-.06,32.8-1.74,49.4-1.34-.44-2.39-.74-3.39-1.13-5.23-2.04-10.44-4.13-15.69-6.12-1.19-.46-1.73-1.03-1.72-2.39.18-25.7.31-51.4.44-77.11.05-11.23.09-22.46.12-33.7,0-.93,0-1.85,0-2.85.66-.1,1.04-.21,1.42-.2,12.33.09,24.68.02,37.01.37,8.54.24,14.17,5.34,15.66,13.75.63,3.57.97,7.23.97,10.84.01,9.4-.13,18.8-.43,28.2-.14,4.18-2.19,7.69-5.08,10.7-.92.95-1.69,2.05-2.16,2.63,2.73,4.22,5.27,8.07,7.7,12,.51.82.77,1.92.78,2.89.15,17.32.26,34.64.33,51.96,0,2.04-.26,4.08-.43,6.56Z"/>
  <path class="cls-1" d="m429.75,210.64c.02.47-.13.94-.17,1.41-.36,5.46-.91,6.05-6.33,6.23-3.16.1-6.31.02-9.76.02v-34.41c4.36.31,8.57.58,12.78.94,1.79.15,2.62,1.42,2.68,3.09.3,7.57.54,15.15.79,22.72Z"/>
  <path class="cls-1" d="m151.18,224.52h-12.28c-.1-.38-.25-.68-.25-.98.25-11.29.42-22.58.81-33.87.17-4.76,5.08-7.19,9.21-4.68.82.49,1.56,1.67,1.69,2.62.43,3.04.74,6.12.77,9.19.09,9.15.03,18.31.03,27.72Z"/>
  <path class="cls-1" d="m307.57,211.82c-.26,2.06-1.28,3.22-3.26,3.41-3.59.34-7.19.55-10.99.83v-32.13c3.77.26,7.31.44,10.83.75,2.06.19,3.16,1.33,3.43,3.52.98,7.89.98,15.74,0,23.62Z"/>
</svg>