<?xml version="1.0" encoding="UTF-8"?>
<svg id="Capa_1" data-name="Capa 1" xmlns="http://www.w3.org/2000/svg" viewBox="0 0 500 500">
  <defs>
    <style>
      .cls-1 {
        fill: #fff;
        stroke-width: 0px;
      }
    </style>
  </defs>
  <path class="cls-1" d="m103.56,397.98c0,7.58.05,15.15-.04,22.71-.03,2.21-.2,4.91-3.34,4.73-2.59-.15-2.91-2.56-2.91-4.56-.08-15.37-.09-30.73-.03-46.1.01-2.23.36-4.96,3.41-4.72,2.94.23,2.87,3.03,2.88,5.22.08,7.58.03,15.15.03,22.71Z"/>
  <path class="cls-1" d="m148.64,390.41c-6.26-7.23-14.55-8.22-23.89-2.41-4,2.48-4.68.48-4.84-2.78-.16-3.57-.01-7.15-.17-10.71-.09-2.39.23-5.51-3.23-5.6-3.69-.09-3.98,2.98-4.01,5.75-.05,7.59-.01,15.18-.01,22.75h.31c0,7.82,0,15.62-.01,23.42,0,1.82-.01,3.7,1.88,4.68,1.86.97,3.61.32,4.73-1.26,2.06-2.92,4.04-1.53,6.32-.32,8.89,4.71,17.82,3.47,23.05-3.03,6.74-8.39,6.69-22.65-.11-30.49Zm-15.74,30.1c-8.26-.12-13.13-5.77-13.07-15.15.05-8.8,5.73-15.04,13.61-15,7.72.03,13.62,6.61,13.58,15.15-.04,9.37-5.46,15.12-14.12,15Z"/>
  <path class="cls-1" d="m173.43,406.56c6.48-.15,12.95-.11,19.43-.15,4.38-.01,5.91-1.89,4.93-6.38-2.36-10.87-11.25-17.36-22.1-15.75-10.07,1.5-17.48,11.65-16.55,22.66,1.09,12.78,8.51,19.87,20.8,19.87,4.16.16,8.06-.79,11.41-3.22,2.19-1.6,6.06-3.16,3.81-6.54-2.04-3.07-4.63-.35-6.84,1.14-6.34,4.25-14.36,3.53-18.89-1.66-1.84-2.11-3.08-4.64-2.27-7.36.9-3.02,3.9-2.56,6.26-2.6Zm-1.6-14.29c4.93-3.61,12.47-2.68,16.2,2.02,1.35,1.7,2.98,3.62,1.84,5.97-1.07,2.23-3.38,1.64-5.34,1.64-1.98.01-3.98.01-5.97.01v-.09c-1.33,0-2.67.13-3.98-.03-2.44-.29-6.03,1.41-6.97-1.84-.91-3.2,1.64-5.78,4.22-7.68Z"/>
  <path class="cls-1" d="m225.07,386.72c.55,1.61.2,3.58-1.42,3.98-14.2,3.55-12.13,14.96-12.47,25.26-.08,2.23-.13,4.45-.44,6.64-.23,1.65-1.19,3-3.08,2.9-1.92-.12-2.64-1.64-2.67-3.27-.09-5.56-.04-11.12-.04-16.68h-.04c0-5.34-.19-10.69.07-16.01.16-3.54,2.13-6.33,5.28-2.74,2.67,3,3.97,2.31,6.33.27,1.29-1.11,3.08-1.74,4.76-2.27,1.66-.52,3.14.17,3.73,1.92Z"/>
  <path class="cls-1" d="m113.83,187.89c7.41-11.69,17.04-21.14,27.97-29.46,14.4-10.95,28.96-21.71,43.01-33.08,15.37-12.44,25.92-28.17,29.75-47.92.17-.86.58-1.68,1.5-4.29,6.58,18.74,11.71,36.24,15.45,54.16.88,4.29-2.23,5.94-5.01,7.79-15.74,10.43-29.97,22.5-41.4,37.69-23,30.58-22.66,65.51,1.03,95.68,5.12,6.52,4.72,7.9-3,10.39-11.2,3.58-22.45,3.79-33.6.08-5.12-1.7-7.27-.5-7.87,5.03-1.38,12.74-1.19,25.42,1.03,38.01.86,4.84.8,8.61-5.24,9.18-6.4.62-6.62-4.02-6.72-8.37-.32-14.31-.59-28.63,2.49-42.72,1.07-4.96-.09-8.14-4.42-11.3-25.33-18.54-31.74-54.42-14.96-80.88Z"/>
  <path class="cls-1" d="m268.33,374.68c-.03-2.41.15-5.56-3.14-5.7-3.73-.16-3.73,3.2-3.87,5.85-.19,3.55-.11,7.12-.19,10.69-.08,3.51-1.47,4.57-4.48,2.27-3.51-2.68-7.44-3.92-11.87-3.63-10.98.7-18.37,11.21-17.14,24.43,1.49,15.86,16.12,23.22,29.65,14.88,1.38-.86,2.63-3.06,4.24-.36,1.11,1.85,2.39,3.53,4.76,2.35,2.11-1.05,2.04-3.31,2.05-5.31.04-7.58.01-15.15.01-22.73s.05-15.15-.03-22.73Zm-20.58,45.86c-8.35-.15-13.07-5.7-12.97-15.25.11-8.92,5.83-15.18,13.66-14.92,7.99.25,12.82,6.18,12.74,15.65-.08,9.81-4.57,14.67-13.44,14.52Z"/>
  <path class="cls-1" d="m298.69,388.41c-.67,2.75-3.1,2.83-5.26,3.34-6.25,1.5-8.5,6.1-8.76,11.91-.25,5.79-.09,11.6-.23,17.39-.04,2.04-.36,4.37-2.99,4.44-2.6.05-3.22-2.21-3.27-4.26-.12-5.35-.04-10.7-.04-16.05.01-5.12-.24-10.27.09-15.38.24-3.79,2.23-6.49,5.93-2.99,2.83,2.68,4.32.52,6.3-.59,2.15-1.21,4.3-2.61,6.86-1.26,1.34.7,1.69,2.05,1.35,3.46Z"/>
  <path class="cls-1" d="m195.78,257.52c-15.98-23.42-16.37-49.6-2.23-71.64,9.71-15.12,23.84-25.15,37.58-35.79,9.88-7.64,20.11-14.86,29.81-22.73,16.14-13.13,28.77-28.67,32.23-50.04.13-.87.34-1.8,2.04-2.17,3.34,6.13,4.76,13.13,6.68,19.84,2.76,9.64,4.65,19.54,7.24,29.23,1.37,5.14-.13,8.45-4.53,11.24-15.82,9.98-29.48,22.35-40.88,37.23-23.41,30.58-23.56,62.87-.38,93.63,6.49,8.62,5.64,10.9-4.96,13.41-23.24,5.5-50.24-4.08-62.6-22.22Z"/>
  <path class="cls-1" d="m321.31,384.03c-12.01-.05-21.09,9.04-21.21,21.23-.13,13.09,8.17,21.53,21.16,21.57,12.59.03,21.06-8.51,20.93-21.12-.13-12.31-9.12-21.64-20.88-21.68Zm-.07,36.51c-8.72-.07-13.82-5.77-13.7-15.29.12-9.13,5.36-14.9,13.57-14.91,8.18-.01,13.81,6.37,13.72,15.54-.09,9.2-5.2,14.71-13.58,14.66Z"/>
  <path class="cls-1" d="m362.61,424.28c-.55,1.47-1.93,1.8-3.33,1.7-5.12-.35-9.63-2.15-9.76-7.99-.34-14.72-.21-29.44-.19-44.17.01-2.01.5-4.42,3.04-4.49,3.23-.08,3.02,2.75,3.04,4.91.08,6.69.03,13.38.03,20.09h.04c0,5.12.09,10.26-.03,15.39-.12,4.83-.39,9.55,5.69,11.28,1.39.39,2,1.82,1.46,3.29Z"/>
  <path class="cls-1" d="m289.55,166.34c15.66-13.57,32.76-25.48,49.14-38.23,16.91-13.18,28.99-29.54,33.16-51.02.16-.84.51-1.64,1.31-4.09,10.36,31.56,18.54,61.57,21.41,92.93,1.84,20.05,1.1,39.69-4.63,58.97-6.29,21.17-18.5,37.78-38.05,48.89-36.12,20.5-82.85-2.47-89.41-43.54-4.37-27.39,7.91-47.32,27.06-63.92Z"/>
  <path class="cls-1" d="m402.79,402.66c-.12-15.55-13.17-23.48-27.08-16.29-2.8,1.45-7.35,3.35-5.39,7.01,2.19,4.09,5.31,0,7.83-1.31,8.14-4.22,17.52-.25,18.17,7.75.25,3.27-.56,5.4-4.52,4.14-5.01-1.61-10.14-1.65-15.2-.47-5.22,1.21-8.76,4.28-9.41,9.94-.78,6.64,3.33,11.4,10.55,13.13,7.58,1.82,14.67-2.79,22.27-1.15,2.13.46,2.63-2.65,2.67-4.68.11-4.01.04-8.02.04-12.04h.08c0-2.01.01-4.01,0-6.02Zm-18.88,19.17c-3.92-.32-9.04-.83-9.83-7.19-.52-4.18,5.12-7.88,11.3-7.88s10.78,3.22,10.89,7.51c.11,4.61-4.36,7.63-12.36,7.56Z"/>
</svg>