<?xml version="1.0" encoding="UTF-8"?>
<svg id="Capa_1" data-name="Capa 1" xmlns="http://www.w3.org/2000/svg" viewBox="0 0 500 500">
  <defs>
    <style>
      .cls-1 {
        stroke-width: 0px;
      }
    </style>
  </defs>
  <path class="cls-1" d="m287.6,247.59c0,14.2,0,28.41.02,42.61,0,.92-.42,2.14.63,2.65.88.42,1.61-.53,2.33-.99,19.68-12.8,39.34-25.63,59.03-38.42,18.6-12.08,37.22-24.13,55.83-36.19,9.41-6.1,18.8-12.21,28.23-18.29,2.7-1.74,5.61-2.64,8.91-2.6,10.33.11,20.66.03,30.99.04,5.86,0,9.21,3.3,9.22,9.1.02,20.26-.04,40.52.03,60.77.02,6.94-2.83,11.95-8.87,15.49-11.9,6.98-23.66,14.2-35.47,21.32-.41.25-.82.52-1.25.74-3.13,1.58-4.44.78-4.44-2.75,0-21.63,0-43.26,0-64.89,0-.81.02-1.61-.01-2.42-.08-2.29-.42-2.52-2.33-1.3-6.31,4.06-12.59,8.17-18.88,12.26-19.83,12.87-39.65,25.74-59.48,38.61-8.39,5.45-16.82,10.84-25.16,16.36-3.49,2.31-7.16,3.4-11.38,3.38-22.36-.09-44.71-.05-67.07-.03-2.59,0-4.98-.49-7-2.19-2.16-1.83-2.65-4.29-2.65-6.98.04-16.06.05-32.12.06-48.18,0-11.78,0-23.57,0-35.35,0-.73.02-1.46-.04-2.18-.13-1.61-.68-2.19-2.31-1.19-6.06,3.7-12.17,7.31-18.26,10.96-14.8,8.88-29.6,17.77-44.39,26.67-1.73,1.04-3.41,2.15-5.18,3.12-1.59.88-1.57,1.65-.31,2.9,5.18,5.08,10.29,10.24,15.43,15.38,11,11,22.01,22,32.99,33.03.77.77,1.91,1.58,1.47,2.84-.51,1.44-1.98,1.16-3.15,1.16-14.69.02-29.38,0-44.07,0-3.72,0-6.77-1.2-9.48-3.97-9.07-9.3-18.36-18.39-27.49-27.63-1.42-1.44-2.47-1.49-4.15-.47-16.28,9.86-32.62,19.62-48.93,29.43-2.98,1.79-6.11,2.7-9.64,2.68-14.45-.08-28.89-.03-43.34-.04-7.74,0-10.81-3.12-10.81-10.91,0-19.13.05-38.26-.03-57.38-.03-6.99,2.63-12.28,8.71-15.88,10.48-6.21,20.92-12.49,31.37-18.76,2.28-1.37,4.5-2.85,6.79-4.2,1.81-1.07,2.9-.48,3.1,1.61.08.8.03,1.61.03,2.42,0,24.54,0,49.07,0,73.61,0,.73-.01,1.45,0,2.18.07,2.34.34,2.49,2.28,1.32,17.98-10.8,35.96-21.61,53.94-32.41,25.31-15.21,50.62-30.42,75.94-45.61,2.87-1.72,5.92-2.69,9.39-2.68,23.16.09,46.33.04,69.49.05,6.45,0,9.33,2.87,9.34,9.3.01,13.96,0,27.93,0,41.89Z"/>
</svg>