<?xml version="1.0" encoding="UTF-8"?>
<svg id="Capa_1" data-name="Capa 1" xmlns="http://www.w3.org/2000/svg" viewBox="0 0 500 500">
  <defs>
    <style>
      .cls-1 {
        fill: #fff;
        stroke-width: 0px;
      }
    </style>
  </defs>
  <path class="cls-1" d="m125.41,299.87c2.09-2.94,3.75-5.13,5.26-7.42,1.52-2.31,2.29-4.83,1.14-7.56-1.35-3.21-4.73-4.42-9.12-3.09-14.83,4.52-27.09,12.76-35.73,25.76-2.57,3.87-4.56,8.3-5.9,12.75-1.85,6.13.89,11.34,6.66,14.21,5.33,2.65,11.09,3.49,16.95,3.43,21.46-.2,42-5.1,62.04-12.4,6.36-2.32,12.61-4.95,18.87-7.42-.14-.72-.12-1.06-.27-1.28-7.87-11.83-4.78-23.15,1.85-34.12,5.71-9.44,14.71-14.93,24.51-19.25,16.35-7.21,32.9-7.87,49.29-.42,18.71,8.51,24.66,31.32,12.96,48.23-6.63,9.59-15.55,15.81-26.82,18.65-13.82,3.48-27.7,3.99-41.48-.09-3.46-1.02-6.73-2.76-9.97-4.39-1.59-.8-2.68-.87-4.27.16-24.32,15.78-50.74,26.26-79.51,30.11-15.65,2.09-31.34.94-46.71-2.84-6.68-1.64-12.88-4.44-17.33-10.09-4.52-5.75-5.19-11.94-2.24-18.6,4.54-10.25,12.05-18.2,19.94-25.83,14.63-14.16,30.95-25.95,49.27-34.94,12.93-6.35,26.35-10.99,40.73-12.56.88-.1,1.77-.16,2.66-.16,5.68,0,8.36,3.09,7.61,8.68-.96,7.21-3.81,13.65-8.14,19.43-7.38,9.87-16.2,17.78-28.68,20.55-.94.21-1.91.27-3.56.5Zm114.86-13.33c.26-1.46.56-3.3.91-5.13,1.02-5.27-1.01-8.29-6.22-8.33-4.09-.03-8.35.11-12.23,1.23-8.48,2.46-13.42,8.59-14.34,17.3-.87,8.26,2.3,15.25,9.33,19.8,7.71,4.99,16.04,4.16,23.59-.13,8.33-4.73,13.91-11.87,14.28-22.03.13-3.68-1.61-5.76-5.3-5.42-3.18.29-6.27,1.65-10.02,2.71Z"/>
  <path class="cls-1" d="m220.34,249.81c-6.44,2.91-12.96,2.47-19.4,1.64-13.72-1.76-24.78-8.38-33.85-18.78-3.46-3.97-7.42-7.66-11.69-10.74-5.01-3.61-10.63-3.27-15.3.8-3.6,3.14-6.46,7.11-9.7,10.68-3.17,3.49-6.12,7.27-9.67,10.34-7.36,6.36-14.48,5.23-20.07-2.78-1.63-2.34-2.99-4.89-4.73-7.14-3.54-4.6-8.04-5.61-12.26-1.71-4.42,4.08-8.51,8.84-11.6,13.99-8.9,14.84-15.18,30.94-20.95,47.2-5.86,16.52-11.38,33.16-17.34,49.65-2,5.53-4.83,10.77-7.46,16.06-.48.97-1.82,1.52-2.76,2.27-.65-.92-1.72-1.78-1.87-2.78-.73-4.96-1.68-9.95-1.72-14.93-.21-24.39,3.88-48.28,8.99-72.02,5.93-27.51,14.48-54.23,24.99-80.3,1.96-4.86,4.79-9.52,8.01-13.66,3.58-4.6,8.07-5.21,12.84-1.91,4.25,2.94,8.03,6.63,11.75,10.26,5.99,5.85,11.72,11.96,17.66,17.87,1.59,1.59,3.43,2.98,5.33,4.21,4.4,2.86,8.45,2.57,11.47-1.65,3.3-4.6,5.86-9.74,8.58-14.74,2.02-3.71,3.43-7.78,5.72-11.3,3.61-5.53,9.03-6.4,14.2-2.32,2.66,2.1,5.09,4.72,6.98,7.54,8.18,12.2,16.06,24.6,24.18,36.84,2.17,3.28,4.72,6.32,7.19,9.39,6.92,8.61,15.67,14.27,26.6,16.43,1.99.39,3.92,1.06,5.88,1.61Z"/>
  <path class="cls-1" d="m312.29,222.13c-3.08-.9-5.77-1.77-8.5-2.46-5.33-1.36-10.38-.26-15.21,2.06-2.2,1.06-3.08,2.95-2.05,5.16,4.65,10.02,9.16,20.15,17.41,27.93,1.35,1.28,2.83,2.42,4.59,3.91-6.06,2.25-11.85,2.3-17.66.23-8.18-2.91-13.95-8.74-18.71-15.71-1.95-2.85-3.66-5.85-5.55-8.75-2.62-4.02-5.8-5.65-10.35-4.11-8.38,2.83-16.56,6.26-24.85,9.36-4.14,1.55-8.26,3.36-12.55,4.3-8.51,1.87-14.41-2.77-14.23-11.45.59-29.45,5.52-58.06,17.83-85.06,1.71-3.74,3.98-7.27,6.34-10.66,4.09-5.87,7.68-6.14,11.71-.18,4.28,6.34,8.03,13.12,11.3,20.04,6.36,13.45,12.31,27.09,18.25,40.73,2.64,6.06,7.12,8.61,13.52,8.44,7.05-.18,13.76,1.01,19.7,5.13,3.96,2.75,6.78,6.43,9.02,11.08Zm-86.68-15.92c.56,2.58.87,5.25,1.73,7.73,1.48,4.24,4,6.01,8.38,5.26,4.01-.69,8.06-1.86,11.74-3.59,4.83-2.27,6.13-5.9,4.07-10.77-3.72-8.79-7.67-17.49-11.74-26.12-.8-1.7-2.6-2.93-3.94-4.37-1.41,1.68-3.3,3.15-4.15,5.08-3.73,8.48-5.26,17.5-6.09,26.78Z"/>
  <path class="cls-1" d="m294.98,228.06c7.86.3,15.72.54,23.57.91,12.21.57,24.42,1.34,36.63,1.74,3.18.1,6.44-.67,9.57-1.45,3.4-.84,5.35-3.58,4.85-6.85-.62-4.1-1.56-8.43-3.54-12-8.67-15.57-21.62-26.94-36.84-35.89-1.26-.74-2.68-1.25-4.08-1.69-4.66-1.46-6.94.42-6.2,5.22.76,4.96,1.83,9.88,2.58,14.85,1.56,10.41,2.99,20.84,3.83,31.61-.76-.68-1.58-1.3-2.28-2.03-9.99-10.48-16.73-22.95-21.24-36.53-4.21-12.7-7.63-25.66-11.34-38.53-.82-2.84-1-5.72,1.53-7.93,2.6-2.27,5.52-1.73,8.36-.57,19.65,8.01,38.06,18.18,54.59,31.56,13.71,11.1,26.33,23.34,35.56,38.49,3.96,6.5,7,13.67,9.63,20.85,2.92,7.96-.08,13.73-7.88,17.24-8.04,3.62-16.58,4.25-25.2,3.95-18.81-.66-36.92-4.63-54.12-12.33-6.24-2.79-12.26-6.08-18.38-9.15.14-.48.28-.97.41-1.45Z"/>
  <path class="cls-1" d="m480.03,320.9c-6.43,7.47-14.4,12.03-23.32,14.93-14.49,4.7-29.16,4.56-43.77.79-11.54-2.98-17.59-11.33-18.89-24-2.19-21.39,2.22-41.57,10.52-61.11,7.15-16.83,15.24-33.14,26.56-47.65,6.12-7.84,12.96-14.89,22.04-19.33,1.61-.79,3.41-1.21,5.4-1.25-2.44,3.67-5.02,7.26-7.3,11.03-12.53,20.66-20.11,43.2-24.49,66.8-1.75,9.45-2.48,19.18-2.75,28.8-.43,15.71,8.2,26.55,23.7,29.2,8.97,1.53,18.24,1.28,27.38,1.79,1.63.09,3.27.01,4.9.01Z"/>
  <path class="cls-1" d="m337.49,331.51c-7.53-1.32-15.27-1.96-22.55-4.14-9.02-2.71-16.6-8.17-22.17-15.99-10.71-15.05-7.58-33.16,7.45-43.91,9.79-7,20.74-9.66,32.64-9.28,16.2.51,30.9,4.97,43.01,16.16,6.08,5.61,10.55,12.36,11.56,20.76,1.37,11.47-4.09,19.69-13.2,25.91-8.89,6.07-18.98,8.5-29.52,9.42-2.35.21-4.73.03-7.09.03-.05.35-.09.69-.14,1.04Zm24.74-41.8c.2-7.33-3.14-11.87-9.15-12.18-4.12-.21-7.37,1.66-10.17,4.59-.56.59-1.71.96-2.51.85-.38-.05-.68-1.43-.85-2.23-.14-.66.03-1.38-.03-2.06-.37-4.67-3.81-7.89-8.26-7.32-6.98.89-12.32,4.36-14.64,11.22-2.8,8.27-1.28,15.99,4.21,22.78,5.93,7.32,16.9,10.01,26.44,6.69,9.08-3.16,14.67-11.5,14.96-22.32Z"/>
  <path class="cls-1" d="m261.37,354.94c3.5-.02,5.93,1.57,6.43,4.45.13.75-.52,2.35-.73,2.34-1.1-.07-2.24-.41-3.24-.91-.92-.46-1.6-1.52-2.54-1.78-.55-.15-1.91.69-1.97,1.2-.09.74.46,1.88,1.1,2.32,1.37.92,3,1.46,4.48,2.23,2.4,1.25,3.8,3.09,3.34,5.96-.47,2.89-2.13,4.48-5.01,5.03-3.94.75-7.59-.58-8.49-3.49-.27-.89.27-2.03.44-3.06,1.09.31,2.25.5,3.26.98.66.31,1.11,1.5,1.66,1.49,1.23,0,2.46-.5,3.69-.79-.58-.96-.98-2.16-1.8-2.82-.96-.78-2.32-1.03-3.46-1.61-3.22-1.65-4.31-3.84-3.55-6.96.73-3,2.89-4.56,6.38-4.58Z"/>
  <path class="cls-1" d="m382.28,374.96c-2.33.98-3.88,1.26-5.02-1.56-.42-1.05-2.58-1.74-4.03-1.92-.9-.11-2.58.88-2.82,1.7-.78,2.7-2.4,2.68-4.81,2.05.15-.9.2-1.75.44-2.55,1.46-4.89,2.99-9.76,4.45-14.66.53-1.78,1.33-2.81,3.48-2.79,2.11.02,2.64,1.18,3.13,2.8,1.66,5.55,3.38,11.08,5.17,16.92Zm-8.08-12.9c-.24,0-.47.02-.71.03-.47,1.69-.93,3.37-1.48,5.33h3.47c-.47-1.96-.88-3.66-1.29-5.36Z"/>
  <path class="cls-1" d="m229.08,371.78c2.21,0,4.24,0,6.28,0,1.44,0,2.81.38,2.38,2.08-.18.72-1.54,1.55-2.42,1.62-2.65.21-5.32-.02-7.98.1-1.87.08-2.68-.48-2.65-2.48.09-5.13.06-10.25,0-15.38-.02-1.59.5-2.39,2.19-2.37,2.86.05,5.73-.11,8.57.09.73.05,1.4,1.11,2.09,1.71-.73.68-1.38,1.74-2.22,1.94-1.4.33-3-.14-4.39.22-.81.21-1.77,1.31-1.91,2.14-.09.54,1.05,1.7,1.82,1.9,1.3.33,2.8-.11,4.1.22.78.2,1.35,1.25,2.02,1.92-.7.6-1.33,1.4-2.14,1.75-.66.29-1.55.06-2.34.06q-3.72-.01-3.41,4.49Z"/>
  <path class="cls-1" d="m335.54,355.84c3.79-1.1,4.18-.91,5.01,2.41.91,3.61,1.78,7.24,3.12,10.88.82-3.29,1.65-6.59,2.47-9.88.21-.86.16-2.02.7-2.51.81-.74,2.05-1,3.11-1.47.31.81,1.04,1.73.87,2.41-1.37,5.43-2.82,10.85-4.51,16.19-.26.81-2,1.69-2.95,1.58-1.07-.12-2.62-1.14-2.92-2.09-1.78-5.71-3.26-11.52-4.9-17.52Z"/>
  <path class="cls-1" d="m195.47,365.43c0-2.66-.15-5.34.1-7.98.07-.75,1.25-1.93,2.01-2,2.64-.25,5.33-.22,7.98-.04.67.05,1.87,1.15,1.79,1.57-.16.8-.93,1.83-1.68,2.08-1.07.36-2.34.1-3.52.1-1.55,0-2.81-.03-2.81,2.31,0,2.33,1.04,2.65,2.87,2.56.98-.05,2.06-.21,2.93.12.71.27,1.61,1.18,1.62,1.82,0,.62-1,1.26-1.58,1.88-.05.05-.19,0-.29.02-5.21.47-5.15.47-5.56,5.62-.06.73-1.16,1.37-1.78,2.06-.69-.71-1.9-1.37-1.97-2.14-.25-2.64-.09-5.32-.09-7.98h0Z"/>
  <path class="cls-1" d="m288.93,367.12c0-1.77-.09-3.54.02-5.3.14-2.1-.78-3.03-2.78-2.64-1.61.31-2.47-.35-2.18-1.76.16-.8,1.29-1.95,2.04-1.99,3.34-.21,6.7-.17,10.05,0,.69.04,1.34,1.01,2,1.55-.62.72-1.25,2.06-1.85,2.04-3.03-.08-3.3,1.65-3.22,4,.11,3.35.18,6.71-.06,10.05-.06.88-1.19,2.19-2.06,2.4-1.78.44-1.97-1.02-1.94-2.44.04-1.97.01-3.94.01-5.91,0,0-.02,0-.03,0Z"/>
  <path class="cls-1" d="m398.77,365.33c0-2.66-.13-5.33.09-7.98.06-.71,1.3-1.97,1.76-1.87.86.19,2.15,1.15,2.19,1.85.19,3.73.15,7.48,0,11.22-.1,2.38.61,3.39,3.17,3.28,1.59-.07,4.36-1.16,4.4,1.8.05,3.13-2.74,1.78-4.31,1.8-7.3.08-7.3.01-7.31-7.44,0-.89,0-1.77,0-2.66h.01Z"/>
  <path class="cls-1" d="m318.92,365.58c0,2.56.15,5.13-.09,7.66-.08.82-1.07,1.99-1.87,2.21-1.55.43-2.25-.6-2.23-2.21.05-5.21.05-10.43.01-15.64-.01-1.61.69-2.63,2.25-2.17.78.23,1.76,1.38,1.83,2.19.23,2.64.09,5.3.09,7.96h.01Z"/>
</svg>