<?xml version="1.0" encoding="UTF-8"?>
<svg id="Capa_1" data-name="Capa 1" xmlns="http://www.w3.org/2000/svg" viewBox="0 0 500 500">
  <defs>
    <style>
      .cls-1 {
        stroke-width: 0px;
      }
    </style>
  </defs>
  <path class="cls-1" d="m100.59,357.24c0-.7,0-1.17,0-1.64.15-8.4.3-16.8.47-25.2.03-1.62.15-3.23.19-4.85.02-.74-.08-1.48-.13-2.22-.16-2.29-1.4-3.74-3.45-4.69-4.8-2.22-9.57-4.5-14.36-6.77-1.34-.64-2.68-1.28-4.02-1.93-.35-.17-.71-.34-1.04-.55-1.83-1.14-2.14-3.24-.64-4.79.6-.62,1.35-1.11,2.11-1.54,6.37-3.58,12.75-7.13,19.13-10.68.23-.13.45-.26.69-.38,1.39-.7,2.03-1.86,2.05-3.4.04-2.71.09-5.42.13-8.14.21-15.62.42-31.24.64-46.86.05-3.94.14-7.87.21-11.81,0-.18.01-.35.01-.52-.03-2.96,1.26-5.12,3.9-6.46,1.99-1.01,3.96-2.07,6-2.96,1.02-.44,2.17-.66,3.28-.78,1.27-.13,2.19.58,2.62,1.76.25.69.45,1.44.45,2.16.02,3.06-.02,6.12-.09,9.18-.1,4.46-.28,8.92-.38,13.38-.21,9.41-.4,18.81-.61,28.22-.06,2.62-.2,5.25-.24,7.87-.01.82.09,1.67.31,2.46.37,1.37,1.33,1.86,2.72,1.53,1.48-.35,2.76-1.12,3.93-2.04,3.31-2.58,6.68-5.1,9.83-7.87,5.93-5.21,11.21-11.06,16.17-17.19,5.49-6.78,8.91-14.5,10.3-23.1.7-4.34.87-8.7.15-13.06-1.36-8.24-6.27-13.5-14.45-15.37-5.26-1.2-10.57-1.29-15.92-.72-6.9.73-13.4,2.86-19.72,5.63-14.23,6.23-28.22,12.95-41.69,20.7-11.21,6.44-21.94,13.59-32.12,21.55-3.49,2.73-6.78,5.66-9.83,8.88-.57.6-1.18,1.19-1.86,1.64-1.08.71-1.96.4-2.37-.81-.23-.69-.39-1.45-.39-2.18,0-4.51.03-9.01.71-13.49.7-4.59,2.64-8.57,5.79-11.98,2.12-2.31,4.64-4.13,7.25-5.82,8.2-5.31,16.73-10.03,25.46-14.4,15.28-7.65,31.09-14,47.5-18.79,5.63-1.64,11.31-3.09,17.1-3.98,9.02-1.38,17.93-.98,26.47,2.45,10.84,4.36,17.56,12.3,19.68,23.87,1.09,5.96.37,11.85-1.35,17.63-1.68,5.67-4.39,10.87-7.63,15.77-11.1,16.83-24.82,31.06-41.98,41.83-.63.4-1.25.82-1.91,1.16-1.99,1.03-2.75,2.66-2.65,4.85.08,1.66.02,3.32,0,4.99-.02,2.06-.08,4.11-.09,6.17,0,.96,0,1.93.08,2.89.16,1.89,1.07,3.19,2.85,4.04,7.69,3.68,15.34,7.46,23,11.19,10.23,4.97,20.46,9.93,30.69,14.89,1.14.55,2.32,1.05,3.4,1.7,2.61,1.57,3.34,3.48,2.39,6.34-.91,2.74-2.47,5.11-4.36,7.26-1.34,1.52-3.1,1.94-5.02,1.49-.97-.23-1.92-.6-2.82-1.04-14.72-7.12-29.43-14.27-44.15-21.4-.79-.38-1.56-.8-2.37-1.13-1.99-.82-3.5,0-3.87,2.11-.16.9-.21,1.83-.23,2.74-.05,2.36-.02,4.73-.08,7.09-.03,1.13-.16,2.27-.34,3.39-.61,3.75-2.69,6.48-5.92,8.39-2.05,1.21-4.3,1.94-6.58,2.57-.92.25-1.85.46-3.01.75Z"/>
  <path class="cls-1" d="m308.27,235.77c-.1,6.74-.21,13.47-.28,20.21-.03,2.97.1,5.95.05,8.92-.04,2.49-.13,4.99-.39,7.46-.33,3.13-1.88,5.71-4.19,7.8-2.59,2.35-5.58,4.07-8.86,5.26-.77.28-1.61.42-2.43.44-1.31.03-2.04-.71-2.04-2.03,0-.73.1-1.49.31-2.2.76-2.63.95-5.33,1.16-8.03.69-9.16.94-18.35,1.08-27.54.11-7.09.09-14.18.34-21.26.32-9,.74-18.01,1.33-27,.44-6.64,1.48-13.22,3.76-19.52,2.62-7.23,6.12-14.06,10.68-20.24,6.86-9.3,15.94-15.48,27.25-18.18,3.37-.81,6.79-1.22,10.28-.77,3.43.45,6.32,1.95,8.77,4.35,3.36,3.3,5.53,7.31,6.86,11.78,2.41,8.08,1.58,15.91-1.96,23.5-3.41,7.31-8.26,13.58-14.07,19.13-5.18,4.94-10.93,9.15-16.8,13.2-1.37.94-2.78,1.83-4.13,2.79-.82.58-1.64,1.19-2.32,1.91-1.43,1.51-1.64,3.34-.72,5.21.67,1.36,1.69,2.44,2.78,3.46,4.04,3.76,8.29,7.26,12.72,10.56,2.28,1.7,4.58,3.37,6.86,5.07,2.74,2.05,5,4.53,6.35,7.71,2.14,5.04,1.94,10.05-.38,14.99-1.26,2.68-3.07,4.98-5.07,7.14-3.09,3.34-6.23,6.63-9.3,9.99-6.85,7.49-13.53,15.14-19.67,23.23-2.14,2.82-4,5.85-6.01,8.76-.59.86-1.17,1.77-1.93,2.46-1.46,1.33-3.25,1.25-4.33-.37-2.73-4.09-5.08-8.39-5.54-13.43-.28-3.03.55-5.72,2.61-7.98,1.33-1.45,2.68-2.89,4.06-4.29,7.08-7.22,13.86-14.71,20.01-22.76,2.15-2.82,4.18-5.73,5.77-8.91,1.42-2.85,2.09-5.83,1.52-9.02-.39-2.17-1.39-4.05-2.77-5.72-.94-1.15-2.01-2.19-3.01-3.29-3.44-3.79-6.9-7.56-10.29-11.39-.77-.87-1.43-1.9-1.94-2.94-1.53-3.09-1.63-6.27.03-9.32.85-1.56,1.92-3.03,3.09-4.37,4.12-4.71,8.38-9.29,12.47-14.03,4.47-5.19,8.32-10.81,11.22-17.05,2.26-4.86,3.48-9.98,3.7-15.33.12-2.9-.22-5.77-1.27-8.51-1.5-3.9-4.2-6.49-8.35-7.42-2.26-.5-4.43-.16-6.53.76-2.04.9-3.71,2.29-5.21,3.91-2.63,2.87-4.55,6.19-6.2,9.69-2.87,6.1-4.59,12.54-5.78,19.15-1.64,9.11-2.41,18.29-2.62,27.53-.2,8.83-.5,17.67-.76,26.5.04,0,.08,0,.13,0Z"/>
  <path class="cls-1" d="m237.75,310.02c-.19,12.69-.38,25.37-.58,38.06-.05,3.24-.13,6.47-.2,9.71,0,.09,0,.17,0,.26-.12,2.72-1.11,3.71-3.8,3.74-2.45.02-4.9,0-7.35-.02-.22,0-.44,0-.66-.03-1.59-.15-2.2-.65-2.46-2.22-.15-.9-.16-1.83-.14-2.75.11-6.69.24-13.38.38-20.08.24-11.9.49-23.79.72-35.69.03-1.62.05-3.24,0-4.85-.02-.6-.14-1.23-.37-1.78-.48-1.15-1.62-1.41-2.57-.59-.48.42-.85.99-1.23,1.52-1.18,1.68-2.3,3.41-3.53,5.05-1.13,1.51-2.52,2.8-4.15,3.78-2.4,1.45-4.54,1.22-6.57-.72-1.57-1.49-2.43-3.4-3.13-5.39-.2-.58-.34-1.18-.58-1.74-.52-1.21-1.42-1.4-2.34-.43-.5.53-.88,1.19-1.28,1.81-1.35,2.09-2.62,4.24-4.05,6.28-1.52,2.16-3.37,4.05-5.59,5.48-1.24.79-2.59,1.47-3.98,1.94-2.27.77-4.31.19-5.98-1.57-1.83-1.94-3.07-4.24-4.02-6.71-.17-.45-.3-.92-.51-1.35-.56-1.16-1.23-1.24-2.09-.26-.29.33-.5.72-.78,1.06-3.95,4.85-7.81,9.79-13.09,13.33-.83.56-1.68,1.13-2.59,1.54-1.07.48-2.19.91-3.33,1.15-3.58.77-6.52-.74-8.1-4.03-.63-1.32-.96-2.71-1.08-4.17-.29-3.69.38-7.23,1.56-10.7,2.32-6.77,6.07-12.58,11.6-17.17,2.62-2.18,5.59-3.4,9.06-3.11.87.07,1.73.24,2.59.38,1.74.28,3.27-.13,4.29-1.62,1.49-2.17,3.65-3.03,6.11-3.4,2.95-.44,5.16,1.13,5.71,4.08.39,2.06.64,4.15,1.06,6.2.47,2.28,1.27,4.46,2.39,6.5.43.8.96,1.57,1.58,2.24,1.08,1.16,2.36,1.37,3.66.49.92-.62,1.82-1.42,2.44-2.33,1.24-1.84,2.39-3.77,3.38-5.76,1.86-3.78,3.04-7.81,4.19-11.85.29-1.01.59-2.02,1-2.98.78-1.83,2.18-3.04,4.1-3.59,2.06-.6,3.63.28,3.99,2.4.25,1.5.28,3.04.32,4.57.08,2.5.36,4.98,1.08,7.38.31,1.03.76,2.07,1.37,2.95,1.08,1.56,2.53,1.86,4.1.8,1-.67,1.89-1.56,2.65-2.5,1.63-2.01,2.82-4.31,3.95-6.64,1.58-3.27,3.13-6.55,4.79-9.78,1-1.94,2.15-3.81,3.3-5.66.43-.69.99-1.34,1.61-1.88,1.35-1.16,3.81-.7,4.04,1.58.1.91.11,1.83.09,2.75-.12,4.94-.31,9.88-.4,14.82-.15,7.79-.23,15.57-.35,23.36-.04,2.71-.13,5.42-.19,8.13h-.05Zm-81.46-4.71c.03,2.26,1.33,3.1,3.39,2.12.55-.26,1.09-.58,1.54-.98.88-.78,1.77-1.57,2.52-2.47,2.81-3.33,4.95-7.09,6.7-11.07.6-1.36,1.05-2.79.97-4.31-.08-1.32-.87-2.05-2.16-1.83-.8.13-1.65.38-2.33.81-1.14.72-2.23,1.55-3.21,2.47-3.85,3.64-6,8.21-7.11,13.32-.14.64-.21,1.29-.31,1.94Z"/>
  <path class="cls-1" d="m357.18,263.87c.19-5.33,1.75-10.31,4.11-15.06,2-4.02,4.61-7.63,7.7-10.89,2.18-2.31,4.68-4.21,7.44-5.77,2.76-1.56,5.7-2.44,8.92-2.06,1.74.2,3.12-.32,4.25-1.75.69-.87,1.59-1.66,2.54-2.23,2.5-1.48,5.22-.53,6.19,2.2.49,1.38.7,2.88.89,4.35.33,2.6.49,5.22.81,7.82.14,1.12.44,2.23.79,3.31.24.74.63,1.45,1.08,2.08.75,1.08,1.66,1.37,2.86.83.82-.37,1.67-.86,2.26-1.52,1.02-1.12,2.02-2.33,2.74-3.66,1.34-2.5,2.51-5.1,3.68-7.68.94-2.07,1.77-4.19,2.7-6.26,1.03-2.28,2.25-4.46,3.87-6.38.72-.86,1.56-1.68,2.5-2.28,1.9-1.22,4-.71,5.27,1.16.83,1.23,1.23,2.61,1.12,4.1-.1,1.35-.28,2.7-.36,4.05-.04.78-.02,1.58.11,2.35.22,1.26,1.15,1.78,2.34,1.28.66-.28,1.29-.75,1.78-1.28.62-.66,1.15-1.44,1.62-2.22,2.14-3.51,4.25-7.04,6.39-10.55.45-.75.89-1.51,1.44-2.19,2.01-2.51,5.23-2.57,7.38-.16,1.07,1.2,1.74,2.63,2.15,4.16.57,2.11,1.04,4.24,1.57,6.36.6,2.42,1.15,4.85,1.86,7.23.36,1.2.94,2.36,1.58,3.44.85,1.43,2.11,2.43,3.76,2.89,1.13.31,2.16.19,3.1-.54.41-.32.82-.66,1.27-.92,1.28-.75,2.2-.26,2.15,1.2-.02.68-.18,1.4-.45,2.02-.34.79-.77,1.59-1.33,2.25-1.58,1.86-3.17,3.73-4.91,5.45-1.74,1.71-3.9,2.79-6.3,3.33-3.37.76-6.02-.25-7.99-3.09-1.11-1.6-1.82-3.39-2.35-5.24-.49-1.72-.88-3.47-1.35-5.2-.23-.84-.47-1.69-.85-2.47-1.21-2.49-3.44-2.66-4.97-.38-.53.79-.93,1.68-1.35,2.54-1.81,3.69-3.66,7.38-6.02,10.75-1.38,1.96-2.92,3.83-4.56,5.57-.91.96-2.09,1.75-3.29,2.32-2.49,1.19-4.58.39-5.75-2.12-.47-1.02-.69-2.15-1.01-3.24-.16-.54-.2-1.13-.4-1.65-.34-.9-1.07-1.16-1.9-.68-.44.26-.85.63-1.15,1.04-.49.67-.9,1.39-1.31,2.12-1.43,2.52-3.06,4.91-5.02,7.03-.94,1.02-2.04,1.92-3.18,2.71-1.73,1.19-3.71,1.48-5.78,1.24-1.14-.13-2.06-.7-2.89-1.44-1.33-1.18-2.34-2.6-3.1-4.19-.45-.95-.85-1.92-1.26-2.88-.14-.32-.25-.66-.39-.97-.76-1.63-1.64-1.77-2.65-.29-2.55,3.74-5.7,6.98-8.67,10.35-2.35,2.67-5.03,4.99-8.05,6.89-1.26.8-2.59,1.46-4.06,1.78-2.74.59-5.14-.44-6.34-2.96-.55-1.16-.79-2.48-1.06-3.76-.15-.72-.09-1.48-.12-2.24Zm16.26-5.5c.73-.01,1.68-.24,2.44-.87.81-.66,1.6-1.36,2.28-2.16,2.73-3.21,4.83-6.85,6.86-10.52.33-.61.56-1.28.77-1.95.16-.54.28-1.11.3-1.67.03-1.17-.6-1.81-1.77-1.78-.51.01-1.08.07-1.53.29-.93.47-1.87.97-2.66,1.63-3.95,3.31-6.73,7.43-8.32,12.33-.28.87-.49,1.78-.55,2.68-.11,1.41.54,2.01,2.19,2Z"/>
  <path class="cls-1" d="m259.3,274.65c-.85-.11-1.86-.17-2.84-.38-4.81-1.06-7.12-4.85-5.92-9.65.4-1.59,1.1-3.05,2.1-4.34,3.36-4.32,7.68-6.97,13.22-7.31,1.33-.08,2.72.05,4.03.35,4.95,1.16,7.17,5.03,5.79,9.93-.43,1.53-1.12,2.94-2.09,4.2-3.56,4.65-8.36,6.85-14.28,7.2Z"/>
</svg>