<?xml version="1.0" encoding="UTF-8"?>
<svg id="Capa_1" data-name="Capa 1" xmlns="http://www.w3.org/2000/svg" viewBox="0 0 500 500">
  <defs>
    <style>
      .cls-1 {
        stroke-width: 0px;
      }
    </style>
  </defs>
  <path class="cls-1" d="m67.76,258.49c3.54-6.33,3.8-12.33.49-18.31-3.32-5.99-6.87-11.86-10.24-17.83-3.32-5.87-3.36-11.83-.24-17.8.14-.27.34-.52.45-.69,5.37,11.14,12.18,21.47,18.12,32.28.72,1.31,1.12,2.75,1.67,4.33,1.67-2.44,2.47-5.02,2.73-7.78.36-3.88-.53-7.48-2.49-10.85-3.37-5.79-6.75-11.56-10.04-17.4-3.18-5.64-3.29-11.42-.42-17.24.22-.45.34-1.01.83-1.19,2.87,7.21,7.37,13.49,11.03,20.23,1.29,2.38,2.69,4.7,4.04,7.05,1.21,2.1,2,4.34,2.19,6.76.07.94.44,1.35,1.37,1.62,6.03,1.74,11.67,4.22,16.42,8.48,7.39,6.63,7.45,15.8.06,22.48-5.56,5.03-12.29,7.73-19.49,9.29-14.1,3.07-27.99,2.46-41.48-3-4.22-1.71-8.03-4.1-11.22-7.42-5.84-6.08-5.89-14.01-.05-20.1,4.95-5.16,11.25-7.87,17.96-9.83.78-.23.99-.05,1,.77.03,3.49,1.16,6.64,2.92,9.64,4.06,6.92,8.03,13.89,12.06,20.83.96,1.66,1.67,3.42,2.31,5.67Z"/>
  <path class="cls-1" d="m392.21,256.45c-2.21,3.17-4.93,4.98-8.53,5.41-9.24,1.1-16.25-3.68-18.54-12.71-1.19-4.72-1.24-9.47-.2-14.21,1.8-8.21,7.7-13.33,16.25-14.32,3.19-.37,6.37-.43,9.53.1,1.17.2,1.33-.21,1.32-1.2-.04-3.35.02-6.7-.04-10.04-.02-.99.33-1.39,1.27-1.62,1.87-.45,3.78-.56,5.67-.78,1.35-.15,1.68.31,1.68,1.64-.05,16.53-.03,33.05-.03,49.58,0,.58-.04,1.17,0,1.75.07.85-.3,1.1-1.11,1.08-1.91-.04-3.83-.04-5.74,0-.81.02-1.13-.27-1.16-1.09-.04-1.09-.22-2.18-.37-3.59Zm-.19-16.06c0-3.56-.03-7.12.02-10.68.01-.97-.24-1.39-1.27-1.54-2.21-.32-4.42-.61-6.66-.48-5.56.33-9.39,3.5-10.6,8.89-.77,3.41-.78,6.86.03,10.27.94,3.93,3.07,6.89,7.24,7.85,3.64.83,7.05.12,10.22-1.84.77-.48,1.05-1.04,1.04-1.94-.05-3.51-.02-7.01-.02-10.52Z"/>
  <path class="cls-1" d="m143.44,206.46c5,.06,9.19.6,13.3,1.82.95.28,1.23.68,1.08,1.69-.27,1.79-.6,3.55-1.04,5.31-.26,1.05-.68,1.18-1.66.85-3.91-1.31-7.95-1.9-12.07-1.86-1.5.02-2.97.23-4.4.67-5.09,1.59-6.37,7.36-2.43,10.98,2.03,1.87,4.54,2.92,7.04,3.98,3.81,1.62,7.67,3.14,11.05,5.62,3.18,2.33,5.37,5.3,5.89,9.28,1.05,8-2.75,14.1-10.52,16.27-8.01,2.23-15.98,1.64-23.81-1.13-.92-.33-1.19-.84-1.11-1.77.15-1.86.54-3.67,1-5.48.24-.96.59-1.11,1.52-.73,4.84,1.99,9.9,2.8,15.13,2.51,1.6-.09,3.16-.39,4.67-.95,4.79-1.8,5.9-7.45,2.14-10.94-1.62-1.5-3.57-2.48-5.54-3.42-3.45-1.64-7.09-2.87-10.4-4.82-3.49-2.05-6.29-4.71-7.5-8.73-2.74-9.18,2.17-16.87,11.87-18.64,2.15-.39,4.33-.43,5.78-.51Z"/>
  <path class="cls-1" d="m442.36,251.81c-.32,1.95-.77,3.56-.82,5.18-.07,2.21-1.25,3.07-3.19,3.64-5.85,1.72-11.74,1.99-17.62.44-6.3-1.66-10.47-5.67-12.25-11.99-1.5-5.34-1.51-10.73-.07-16.06,2.11-7.75,7.62-12.09,15.87-12.63,4.78-.31,9.38.29,13.29,3.35,4.78,3.75,6.06,9.02,6.07,14.76,0,1.54-.26,3.07-.27,4.61,0,1.19-.47,1.5-1.63,1.49-7.97-.05-15.95.02-23.92-.06-1.56-.02-1.72.39-1.34,1.78,1.48,5.54,5.32,8.33,11.97,8.39,4.12.04,8.14-.71,12-2.2.54-.21,1.07-.4,1.91-.72Zm-17.07-14.3c2.82,0,5.63,0,8.45,0,.65,0,1.35.07,1.26-.93-.21-2.37-.7-4.66-2.44-6.41-3.07-3.09-6.81-3.2-10.66-1.99-3.24,1.02-5.65,4.8-5.82,8.45-.04.98.5.87,1.08.88,2.71,0,5.42,0,8.13,0Z"/>
  <path class="cls-1" d="m305.68,257.08c-8.09,8.29-21.23,5.89-25.66-4.71-2.83-6.78-2.86-13.82-.29-20.7,2.53-6.76,7.96-10,14.84-10.97,6.07-.86,12.08-.32,18,1.26,1.13.3,1.62.76,1.61,2.04-.06,11.8-.06,23.6,0,35.4,0,1.42-.37,1.87-1.78,1.75-1.48-.12-2.98-.13-4.46,0-1.46.13-1.87-.49-1.85-1.8.01-.72,0-1.48-.42-2.27Zm-.05-16.65c0-3.67-.02-7.33.02-11,.01-.98-.27-1.4-1.32-1.51-1.96-.21-3.92-.32-5.89-.23-5.76.24-9.79,3.42-11.12,8.76-.89,3.57-.86,7.17.05,10.72.98,3.81,3.17,6.61,7.18,7.52,3.52.81,6.84.15,9.95-1.7.83-.5,1.16-1.08,1.14-2.05-.05-3.51-.02-7.01-.02-10.52Z"/>
  <path class="cls-1" d="m193.46,256.93c-9.17,9.21-22.95,5.53-26.69-6.91-1.67-5.57-1.66-11.25.02-16.82,2.26-7.5,7.72-11.36,15.2-12.47,6.22-.93,12.4-.37,18.47,1.32,1.02.28,1.3.75,1.3,1.77-.03,11.96-.04,23.93,0,35.89,0,1.1-.28,1.5-1.42,1.44-1.7-.09-3.41-.09-5.1,0-1.15.06-1.49-.41-1.5-1.47,0-.84-.17-1.68-.28-2.75Zm-.29-16.66c0-3.45-.05-6.9.02-10.35.03-1.32-.19-2-1.74-2.07-1.8-.08-3.6-.24-5.4-.16-5.62.24-9.51,3.15-10.97,8.3-1.14,4.03-1.07,8.1.19,12.09,1.08,3.42,3.29,5.81,6.88,6.62,3.52.79,6.84.17,9.95-1.68.77-.46,1.1-.99,1.08-1.91-.05-3.61-.02-7.22-.02-10.83Z"/>
  <path class="cls-1" d="m323.34,241.7c0-5.95,0-11.91,0-17.86,0-.69-.12-1.36.87-1.57,7.26-1.54,14.53-2.71,21.96-1.29,7.44,1.42,11.17,5.6,11.3,13.16.16,8.56.05,17.12.1,25.68,0,1.08-.37,1.37-1.38,1.33-1.86-.06-3.73-.09-5.58,0-1.3.07-1.73-.3-1.71-1.66.06-7.71.03-15.42.03-23.13,0-1.06-.04-2.11-.27-3.17-.55-2.55-2.09-4.15-4.53-4.85-3.77-1.08-7.58-.72-11.39-.2-1.08.15-.82.93-.82,1.57-.01,7.55,0,15.1,0,22.65,0,2.5-.04,5,.02,7.5.02.97-.29,1.31-1.27,1.28-1.97-.06-3.94-.08-5.9,0-1.11.05-1.45-.3-1.44-1.42.05-6.01.02-12.01.02-18.02Z"/>
  <path class="cls-1" d="m219.56,244.76c0,4.94-.03,9.89.02,14.83.01,1.15-.24,1.63-1.49,1.56-1.86-.1-3.73-.1-5.58,0-1.27.07-1.61-.36-1.6-1.61.05-7.76.03-15.52.03-23.29,0-3.93.07-7.87-.04-11.8-.04-1.47.32-2.12,1.86-2.42,6.92-1.35,13.82-2.4,20.87-1.09,7.71,1.43,11.51,5.96,11.51,13.83,0,8.24-.03,16.48.03,24.72.01,1.35-.37,1.74-1.69,1.66-1.8-.11-3.62-.1-5.42,0-1.22.07-1.52-.36-1.51-1.54.05-7.6.03-15.2.02-22.81,0-6.37-2.24-8.73-8.62-9.1-2.29-.14-4.56.1-6.84.3-1.16.11-1.61.51-1.59,1.76.08,5,.03,9.99.03,14.99Z"/>
  <path class="cls-1" d="m275.18,253.65c.05,2.31-.46,4.43-.74,6.57-.08.59-.54.77-1,.9-4.57,1.29-9.14,1.48-13.57-.47-4.65-2.05-6.2-6.12-6.23-10.79-.1-13.45-.02-26.91-.06-40.36,0-1.05.45-1.38,1.33-1.58,1.97-.46,3.98-.65,5.99-.83,1.04-.09,1.25.36,1.24,1.29-.04,3.93.03,7.87-.04,11.8-.02,1.22.37,1.53,1.54,1.51,3.51-.07,7.02,0,10.53-.04,1.02-.01,1.47.24,1.32,1.34-.23,1.63-.42,3.27-.54,4.91-.07.93-.51,1.08-1.33,1.08-3.3-.04-6.6.03-9.89-.04-1.19-.03-1.66.22-1.64,1.55.08,5.8.01,11.59.04,17.39.02,4.94,2.71,7.3,7.63,6.83,1.8-.17,3.56-.51,5.42-1.04Z"/>
  <path class="cls-1" d="m459.48,244.69c0,4.94-.03,9.89.02,14.83.01,1.2-.26,1.72-1.58,1.64-1.85-.12-3.73-.14-5.58,0-1.46.11-1.5-.64-1.5-1.72.02-11.06.01-22.11.01-33.17,0-3.93,0-3.95,3.9-4.78,5.55-1.18,11.16-1.4,16.81-.97.97.07,1.37.3,1.26,1.42-.15,1.53-.22,3.07-.41,4.6-.14,1.06-.46,1.5-1.71,1.36-3.22-.38-6.46-.27-9.7.02-1.32.12-1.54.65-1.53,1.79.04,5,.02,9.99.02,14.99Z"/>
  <g>
    <path class="cls-1" d="m280.51,294.41c.5.17.81.27,1.11.37,6.56,2.25,8.32,10.92,3.13,15.55-2.1,1.87-4.73,2.54-7.44,2.8-4.25.41-8.52.12-12.78.21-1.04.02-.95-.62-.95-1.3,0-9.55,0-19.09,0-28.64,0-1.75.01-3.5,0-5.25,0-.52.06-.95.69-1.03,5.04-.64,10.07-1.14,15.07.3,3.08.89,5.5,2.52,6.35,5.83,1.15,4.49-.33,8.12-4.29,10.57-.24.15-.47.31-.88.58Zm-13.14,8.67c0,1.93.01,3.86,0,5.79,0,.55.07.89.75.89,3.28-.03,6.56.11,9.82-.37,4.38-.63,6.77-4.11,5.59-8.12-.81-2.78-2.96-3.93-5.53-4.51-3.27-.73-6.6-.33-9.91-.42-.7-.02-.71.43-.71.95.01,1.93,0,3.86,0,5.79Zm-.04-16.45c0,1.78,0,3.56,0,5.35,0,.37-.13.85.53.82,2.87-.1,5.75.26,8.61-.22,3.49-.59,5.71-3.06,5.73-6.25.02-3.12-1.93-5.21-5.59-5.91-2.74-.52-5.5-.4-8.26-.15-.79.07-1.06.33-1.04,1.13.05,1.74.02,3.49.02,5.24Z"/>
    <path class="cls-1" d="m153.33,300.02c0-4.08,0-8.16,0-12.25,0-.45-.13-.94.57-1.1,4.71-1.13,9.44-1.83,14.28-.88,1.15.23,2.26.61,3.21,1.31.52.38.93.33,1.48.09,3.58-1.55,7.3-2.2,11.2-1.66,5.5.76,8.27,3.68,8.38,9.24.12,5.9.02,11.81.04,17.71,0,.7-.27.84-.9.85-2.91.07-2.91.08-2.91-2.78,0-4.85,0-9.7,0-14.54,0-.76-.04-1.54-.19-2.28-.65-3.16-2.82-4.82-6.62-5.04-2.47-.14-4.85.34-7.17,1.21-.62.23-.65.52-.46,1.06.44,1.29.6,2.62.59,3.98,0,5.76-.02,11.52.02,17.28,0,.83-.19,1.13-1.08,1.12-2.69-.03-2.69,0-2.69-2.65,0-5.03,0-10.06,0-15.09,0-.77-.07-1.53-.22-2.28-.46-2.26-1.78-3.71-4.03-4.25-3.09-.75-6.15-.34-9.21.22-.64.12-.58.54-.58.98,0,2,0,4.01,0,6.01,0,5.32-.02,10.64.02,15.97,0,.88-.26,1.1-1.11,1.09-2.63-.03-2.63,0-2.63-2.61,0-3.57,0-7.14,0-10.72Z"/>
    <path class="cls-1" d="m135.55,313.97c-3.88-.1-6.77-.74-9.56-1.89-.78-.32-1.01-.74-.89-1.58.37-2.52.34-2.53,2.66-1.66,3.9,1.47,7.88,2.06,11.99,1.03,2.36-.59,4.13-1.92,4.57-4.44.44-2.51-.56-4.48-2.63-5.93-2.08-1.45-4.48-2.25-6.78-3.24-2.37-1.02-4.88-1.84-6.69-3.8-2.49-2.71-3.2-5.94-2.26-9.44.91-3.39,3.35-5.24,6.7-6,4.5-1.02,8.89-.61,13.25.78.75.24.93.62.84,1.36-.32,2.51-.3,2.51-2.7,1.86-3.19-.86-6.41-1.38-9.71-.67-2.31.5-4.22,1.5-4.71,4.07-.49,2.59.42,4.64,2.57,6.16,1.87,1.32,4.02,2.04,6.11,2.88,2.2.88,4.36,1.82,6.29,3.24,3.06,2.24,4.03,5.38,3.59,8.96-.45,3.67-2.66,6.05-6.08,7.3-2.4.88-4.92.95-6.57,1.02Z"/>
    <path class="cls-1" d="m215.59,311.5c-1.57,1.18-3.27,2.05-5.22,2.31-7.14.95-12.42-2.93-13.64-10.05-.5-2.93-.45-5.87.18-8.79,1.13-5.2,4.74-8.58,10.11-9.35,3.79-.55,7.55-.29,11.23.82.8.24,1.16.56,1.16,1.49-.04,8.09-.04,16.17,0,24.26,0,.89-.22,1.3-1.14,1.15-.04,0-.07,0-.11,0q-2,0-2.57-1.83Zm0-12.64c0-2.88-.02-5.75.02-8.63,0-.74-.26-1.02-.96-1.15-1.62-.29-3.24-.45-4.89-.39-4.47.16-7.57,2.24-8.79,6.08-1.14,3.57-1.08,7.18.16,10.73.85,2.44,2.46,4.23,5.01,4.93,3.08.85,5.98.4,8.59-1.53.61-.45.89-.95.87-1.73-.04-2.77-.02-5.54-.02-8.3Z"/>
    <path class="cls-1" d="m310.08,311.4c-1.77,1.33-3.57,2.2-5.65,2.45-6.6.78-11.58-2.64-13.11-9.12-.84-3.54-.78-7.09.19-10.59,1.36-4.91,4.74-7.65,9.66-8.48,3.93-.66,7.84-.35,11.66.84.65.2.9.51.89,1.23-.03,8.2-.03,16.4,0,24.59,0,.84-.25,1.13-1.05,1.01-.18-.03-.36,0-.55,0q-1.82,0-2.05-1.93Zm-.09-12.61c0-2.87-.03-5.75.02-8.62.01-.7-.25-.95-.88-1.07-1.69-.31-3.39-.5-5.1-.41-4.76.25-7.83,2.58-8.9,6.8-.72,2.83-.74,5.7-.06,8.53,1.58,6.57,8.64,9,14.02,4.88.62-.47.94-.98.92-1.81-.06-2.76-.02-5.53-.02-8.3Z"/>
    <path class="cls-1" d="m320.31,299.98c0-4.04.02-8.09-.02-12.13,0-.77.23-1.06.98-1.23,4.46-1.05,8.94-1.69,13.52-.81,4.72.9,7.29,3.79,7.37,8.61.09,6.01.02,12.02.04,18.03,0,.64-.16.88-.85.9-2.88.07-2.88.1-2.88-2.8,0-5.1.03-10.2-.05-15.3-.06-3.94-2.09-5.98-6.01-6.4-2.46-.26-4.86,0-7.28.37-.86.14-1.11.48-1.11,1.34.03,7.18,0,14.35.04,21.53,0,1.01-.27,1.29-1.27,1.26-2.47-.07-2.47-.02-2.47-2.45,0-3.64,0-7.29,0-10.93Z"/>
    <path class="cls-1" d="m258.31,310c.14.99-.16,1.86-.28,2.75-.04.29-.25.42-.51.5-2.9.87-5.8,1.11-8.64-.18-2.67-1.22-3.58-3.57-3.82-6.29-.05-.54-.04-1.09-.04-1.64,0-8.96.02-17.92-.03-26.88,0-1.02.32-1.35,1.28-1.52,2.47-.44,2.46-.48,2.46,1.94,0,2,.06,4.01-.02,6.01-.04,1.06.18,1.45,1.34,1.4,2.4-.1,4.81,0,7.21-.05.86-.02,1.03.26.95,1.07-.24,2.37-.2,2.37-2.52,2.37-2.04,0-4.08.03-6.12-.01-.68-.01-.85.22-.85.88.03,4.99.01,9.98.02,14.97,0,.43.06.87.13,1.3.46,2.73,2,4.05,4.77,4.12,1.58.04,3.1-.34,4.65-.74Z"/>
    <path class="cls-1" d="m353.42,294.96c0,5.72-.02,11.44.02,17.17,0,.95-.23,1.25-1.21,1.22-2.53-.06-2.53-.01-2.53-2.51,0-10.82.02-21.65-.03-32.47,0-1.04.27-1.46,1.31-1.64,2.45-.43,2.44-.48,2.44,1.94,0,5.43,0,10.86,0,16.29Z"/>
    <path class="cls-1" d="m226.61,300.01c0-4.04.02-8.09-.02-12.13,0-.77.19-1.15.99-1.36,3.85-1.01,7.76-1.2,11.71-.93.58.04.77.29.7.82,0,.04,0,.07,0,.11-.06,2.4-.06,2.38-2.43,2.21-2.15-.15-4.29.06-6.42.37-.79.12-.76.58-.76,1.15,0,7.25-.03,14.5.04,21.75,0,1.15-.33,1.39-1.4,1.35-2.39-.08-2.39-.02-2.39-2.41,0-3.64,0-7.29,0-10.93Z"/>
    <path class="cls-1" d="m371.38,313.33c-1.58,0-2.89,0-4.19,0-.45,0-.72-.3-.98-.61-3.67-4.43-7.34-8.87-11.04-13.28-.5-.59-.51-1.01.02-1.58,3.45-3.7,6.88-7.43,10.31-11.15.25-.28.52-.49.93-.49,1.27.01,2.53,0,3.83,0,0,.55-.39.75-.64,1.03-3.26,3.54-6.51,7.08-9.81,10.58-.6.63-.53,1.01,0,1.62,3.6,4.26,7.17,8.54,10.74,12.82.23.27.44.56.83,1.06Z"/>
  </g>
</svg>